# xmcd
#
# Track frame offsets:
#	150
#	12407
#	25380
#	35785
#	47182
#	55562
#	66277
#	76900
#	89367
#	103127
#	115402
#	128640
#	140027
#	151190
#	161320
#
# Disc length: 2283 seconds
#
# Revision: 5
# Processed by: cddbd v1.5.2PL0 Copyright (c) Steve Scherf et al.
# Submitted via: EasyCDDAExtractor 2010.6.0.0
#
DISCID=c608e90f
DTITLE=Various Artist - CLASSIC COUNTRY 1950 BIS 1959 [DISC 02]
DYEAR=1999
DGENRE=COUNTRY
TTITLE0=GUY MITCHELL - HEARTACHES BY THE NUMBER
TTITLE1=BROWNS - THREE BELLS
TTITLE2=JIM REEVES - AM I LOSING YOU
TTITLE3=DON GIBSON - OH, LONESOME ME
TTITLE4=JOHNNY CASH - GUESS THINGS HAPPEN THAT WAY
TTITLE5=JIMMIE RODGERS - KISSES SWEETER THAN WINE
TTITLE6=GEORGE HAMILTON IV - I KNOW WHERE I'M GOING
TTITLE7=EDDY ARNOLD - YOU DON'T KNOW ME
TTITLE8=PATTI PAGE - TENNESSEE WALTZ
TTITLE9=HANK WILLIAMS - YOUR CHEATIN' HEART
TTITLE10=JERRY LEE LEWIS - YOU WIN AGAIN
TTITLE11=MARTY ROBBINS - THE STORY OF MY LIFE
TTITLE12=STONEWALL JACKSON - WATERLOO
TTITLE13=EVERLY BROTHERS - BIRD DOG
TTITLE14=CONWAY TWITTY - IT'S ONLY MAKE BELIEVE
EXTD=
EXTT0=
EXTT1=
EXTT2=
EXTT3=
EXTT4=
EXTT5=
EXTT6=
EXTT7=
EXTT8=
EXTT9=
EXTT10=
EXTT11=
EXTT12=
EXTT13=
EXTT14=
PLAYORDER=
